<mxfile host="app.diagrams.net" agent="Mozilla/5.0 (Windows NT 10.0; Win64; x64) AppleWebKit/537.36 (KHTML, like Gecko) Chrome/137.0.0.0 Safari/537.36 Edg/137.0.0.0" version="27.1.6">
  <diagram name="Page-1" id="hn7rGJjCdzYfXZ9ZLsk9">
    <mxGraphModel dx="2194" dy="1214" grid="1" gridSize="10" guides="1" tooltips="1" connect="1" arrows="1" fold="1" page="1" pageScale="1" pageWidth="850" pageHeight="1100" math="0" shadow="0">
      <root>
        <mxCell id="0" />
        <mxCell id="1" parent="0" />
        <mxCell id="IdkEX-wO0B-35H_ZXFYB-1" value="Pengguna" style="swimlane;whiteSpace=wrap;html=1;startSize=40;" vertex="1" parent="1">
          <mxGeometry x="120" y="80" width="240" height="1130" as="geometry" />
        </mxCell>
        <mxCell id="IdkEX-wO0B-35H_ZXFYB-3" value="" style="ellipse;html=1;shape=startState;fillColor=#000000;strokeColor=#ff0000;" vertex="1" parent="IdkEX-wO0B-35H_ZXFYB-1">
          <mxGeometry x="80" y="50" width="30" height="30" as="geometry" />
        </mxCell>
        <mxCell id="IdkEX-wO0B-35H_ZXFYB-4" value="" style="edgeStyle=orthogonalEdgeStyle;html=1;verticalAlign=bottom;endArrow=open;endSize=8;strokeColor=#ff0000;rounded=0;" edge="1" source="IdkEX-wO0B-35H_ZXFYB-3" parent="IdkEX-wO0B-35H_ZXFYB-1">
          <mxGeometry relative="1" as="geometry">
            <mxPoint x="95" y="110" as="targetPoint" />
          </mxGeometry>
        </mxCell>
        <mxCell id="IdkEX-wO0B-35H_ZXFYB-5" value="Membuka Website" style="rounded=1;whiteSpace=wrap;html=1;" vertex="1" parent="IdkEX-wO0B-35H_ZXFYB-1">
          <mxGeometry x="40" y="110" width="120" height="60" as="geometry" />
        </mxCell>
        <mxCell id="IdkEX-wO0B-35H_ZXFYB-12" value="Pilih Menu Login" style="rounded=1;whiteSpace=wrap;html=1;" vertex="1" parent="IdkEX-wO0B-35H_ZXFYB-1">
          <mxGeometry x="40" y="210" width="120" height="60" as="geometry" />
        </mxCell>
        <mxCell id="IdkEX-wO0B-35H_ZXFYB-19" value="Masukkan Username dan Password" style="rounded=1;whiteSpace=wrap;html=1;" vertex="1" parent="IdkEX-wO0B-35H_ZXFYB-1">
          <mxGeometry x="40" y="320" width="120" height="60" as="geometry" />
        </mxCell>
        <mxCell id="IdkEX-wO0B-35H_ZXFYB-36" value="Melihat Halaman Beranda" style="rounded=1;whiteSpace=wrap;html=1;" vertex="1" parent="IdkEX-wO0B-35H_ZXFYB-1">
          <mxGeometry x="50" y="420" width="120" height="60" as="geometry" />
        </mxCell>
        <mxCell id="IdkEX-wO0B-35H_ZXFYB-38" value="Pilih Menu Produk" style="rounded=1;whiteSpace=wrap;html=1;" vertex="1" parent="IdkEX-wO0B-35H_ZXFYB-1">
          <mxGeometry x="50" y="510" width="120" height="60" as="geometry" />
        </mxCell>
        <mxCell id="IdkEX-wO0B-35H_ZXFYB-37" value="" style="endArrow=classic;html=1;rounded=0;exitX=0.442;exitY=1;exitDx=0;exitDy=0;exitPerimeter=0;" edge="1" parent="IdkEX-wO0B-35H_ZXFYB-1" source="IdkEX-wO0B-35H_ZXFYB-36">
          <mxGeometry width="50" height="50" relative="1" as="geometry">
            <mxPoint x="280" y="550" as="sourcePoint" />
            <mxPoint x="103" y="510" as="targetPoint" />
          </mxGeometry>
        </mxCell>
        <mxCell id="IdkEX-wO0B-35H_ZXFYB-46" value="Pilih Produk yang akan dimasukkan ke keranjang" style="rounded=1;whiteSpace=wrap;html=1;" vertex="1" parent="IdkEX-wO0B-35H_ZXFYB-1">
          <mxGeometry x="50" y="630" width="120" height="60" as="geometry" />
        </mxCell>
        <mxCell id="IdkEX-wO0B-35H_ZXFYB-54" value="Pilih Alamat Tujuan&amp;nbsp;" style="rounded=1;whiteSpace=wrap;html=1;" vertex="1" parent="IdkEX-wO0B-35H_ZXFYB-1">
          <mxGeometry x="50" y="730" width="120" height="60" as="geometry" />
        </mxCell>
        <mxCell id="IdkEX-wO0B-35H_ZXFYB-56" value="Pilih Metode Pembayaran" style="rounded=1;whiteSpace=wrap;html=1;" vertex="1" parent="IdkEX-wO0B-35H_ZXFYB-1">
          <mxGeometry x="50" y="820" width="120" height="60" as="geometry" />
        </mxCell>
        <mxCell id="IdkEX-wO0B-35H_ZXFYB-61" value="Pilih Checkout" style="rounded=1;whiteSpace=wrap;html=1;" vertex="1" parent="IdkEX-wO0B-35H_ZXFYB-1">
          <mxGeometry x="50" y="900" width="120" height="60" as="geometry" />
        </mxCell>
        <mxCell id="IdkEX-wO0B-35H_ZXFYB-67" value="Melakukan Checkout terhadap produk" style="rounded=1;whiteSpace=wrap;html=1;" vertex="1" parent="IdkEX-wO0B-35H_ZXFYB-1">
          <mxGeometry x="50" y="1010" width="120" height="60" as="geometry" />
        </mxCell>
        <mxCell id="IdkEX-wO0B-35H_ZXFYB-69" value="" style="ellipse;html=1;shape=endState;fillColor=#000000;strokeColor=#ff0000;" vertex="1" parent="IdkEX-wO0B-35H_ZXFYB-1">
          <mxGeometry x="95" y="1090" width="30" height="30" as="geometry" />
        </mxCell>
        <mxCell id="IdkEX-wO0B-35H_ZXFYB-11" value="" style="endArrow=classic;html=1;rounded=0;" edge="1" parent="IdkEX-wO0B-35H_ZXFYB-1">
          <mxGeometry width="50" height="50" relative="1" as="geometry">
            <mxPoint x="140" y="190" as="sourcePoint" />
            <mxPoint x="140" y="210" as="targetPoint" />
          </mxGeometry>
        </mxCell>
        <mxCell id="IdkEX-wO0B-35H_ZXFYB-10" value="" style="endArrow=none;html=1;rounded=0;" edge="1" parent="IdkEX-wO0B-35H_ZXFYB-1">
          <mxGeometry width="50" height="50" relative="1" as="geometry">
            <mxPoint x="140" y="190" as="sourcePoint" />
            <mxPoint x="340" y="190" as="targetPoint" />
          </mxGeometry>
        </mxCell>
        <mxCell id="IdkEX-wO0B-35H_ZXFYB-79" value="" style="endArrow=classic;html=1;rounded=0;" edge="1" parent="IdkEX-wO0B-35H_ZXFYB-1">
          <mxGeometry width="50" height="50" relative="1" as="geometry">
            <mxPoint x="110" y="710" as="sourcePoint" />
            <mxPoint x="110" y="730" as="targetPoint" />
          </mxGeometry>
        </mxCell>
        <mxCell id="IdkEX-wO0B-35H_ZXFYB-2" value="Sistem" style="swimlane;whiteSpace=wrap;html=1;startSize=40;" vertex="1" parent="1">
          <mxGeometry x="360" y="80" width="240" height="1130" as="geometry" />
        </mxCell>
        <mxCell id="IdkEX-wO0B-35H_ZXFYB-7" value="Menampilkan Halaman Beranda" style="rounded=1;whiteSpace=wrap;html=1;" vertex="1" parent="IdkEX-wO0B-35H_ZXFYB-2">
          <mxGeometry x="40" y="110" width="120" height="60" as="geometry" />
        </mxCell>
        <mxCell id="IdkEX-wO0B-35H_ZXFYB-14" value="Menampilkan Halaman Login" style="rounded=1;whiteSpace=wrap;html=1;" vertex="1" parent="IdkEX-wO0B-35H_ZXFYB-2">
          <mxGeometry x="40" y="210" width="120" height="60" as="geometry" />
        </mxCell>
        <mxCell id="IdkEX-wO0B-35H_ZXFYB-22" value="Validasi" style="rhombus;whiteSpace=wrap;html=1;" vertex="1" parent="IdkEX-wO0B-35H_ZXFYB-2">
          <mxGeometry x="40" y="310" width="80" height="80" as="geometry" />
        </mxCell>
        <mxCell id="IdkEX-wO0B-35H_ZXFYB-33" value="ya" style="text;html=1;align=center;verticalAlign=middle;whiteSpace=wrap;rounded=0;" vertex="1" parent="IdkEX-wO0B-35H_ZXFYB-2">
          <mxGeometry x="20" y="380" width="60" height="30" as="geometry" />
        </mxCell>
        <mxCell id="IdkEX-wO0B-35H_ZXFYB-34" value="Menampikan Halaman Beranda" style="rounded=1;whiteSpace=wrap;html=1;" vertex="1" parent="IdkEX-wO0B-35H_ZXFYB-2">
          <mxGeometry x="40" y="420" width="120" height="60" as="geometry" />
        </mxCell>
        <mxCell id="IdkEX-wO0B-35H_ZXFYB-42" value="Menampilkan Halaman Produk" style="rounded=1;whiteSpace=wrap;html=1;" vertex="1" parent="IdkEX-wO0B-35H_ZXFYB-2">
          <mxGeometry x="40" y="510" width="120" height="60" as="geometry" />
        </mxCell>
        <mxCell id="IdkEX-wO0B-35H_ZXFYB-49" value="Produk Ditampilkan di Halaman Keranjang" style="rounded=1;whiteSpace=wrap;html=1;" vertex="1" parent="IdkEX-wO0B-35H_ZXFYB-2">
          <mxGeometry x="50" y="630" width="120" height="60" as="geometry" />
        </mxCell>
        <mxCell id="IdkEX-wO0B-35H_ZXFYB-63" value="Menampilkan Halaman Checkout" style="rounded=1;whiteSpace=wrap;html=1;" vertex="1" parent="IdkEX-wO0B-35H_ZXFYB-2">
          <mxGeometry x="40" y="900" width="120" height="60" as="geometry" />
        </mxCell>
        <mxCell id="IdkEX-wO0B-35H_ZXFYB-30" value="" style="endArrow=classic;html=1;rounded=0;" edge="1" parent="IdkEX-wO0B-35H_ZXFYB-2">
          <mxGeometry width="50" height="50" relative="1" as="geometry">
            <mxPoint x="200" y="270" as="sourcePoint" />
            <mxPoint x="155" y="269.52" as="targetPoint" />
          </mxGeometry>
        </mxCell>
        <mxCell id="IdkEX-wO0B-35H_ZXFYB-44" value="" style="endArrow=none;html=1;rounded=0;" edge="1" parent="IdkEX-wO0B-35H_ZXFYB-2">
          <mxGeometry width="50" height="50" relative="1" as="geometry">
            <mxPoint x="100" y="610" as="sourcePoint" />
            <mxPoint x="-140" y="610" as="targetPoint" />
          </mxGeometry>
        </mxCell>
        <mxCell id="IdkEX-wO0B-35H_ZXFYB-52" value="" style="endArrow=none;html=1;rounded=0;" edge="1" parent="IdkEX-wO0B-35H_ZXFYB-2">
          <mxGeometry width="50" height="50" relative="1" as="geometry">
            <mxPoint x="-130" y="710" as="sourcePoint" />
            <mxPoint x="110" y="710" as="targetPoint" />
          </mxGeometry>
        </mxCell>
        <mxCell id="IdkEX-wO0B-35H_ZXFYB-65" value="" style="endArrow=none;html=1;rounded=0;" edge="1" parent="IdkEX-wO0B-35H_ZXFYB-2">
          <mxGeometry width="50" height="50" relative="1" as="geometry">
            <mxPoint x="-130" y="980" as="sourcePoint" />
            <mxPoint x="100" y="980" as="targetPoint" />
          </mxGeometry>
        </mxCell>
        <mxCell id="IdkEX-wO0B-35H_ZXFYB-17" value="" style="endArrow=none;html=1;rounded=0;" edge="1" parent="IdkEX-wO0B-35H_ZXFYB-2">
          <mxGeometry width="50" height="50" relative="1" as="geometry">
            <mxPoint x="-120" y="300" as="sourcePoint" />
            <mxPoint x="100" y="300" as="targetPoint" />
          </mxGeometry>
        </mxCell>
        <mxCell id="IdkEX-wO0B-35H_ZXFYB-31" value="tidak" style="text;html=1;align=center;verticalAlign=middle;whiteSpace=wrap;rounded=0;" vertex="1" parent="IdkEX-wO0B-35H_ZXFYB-2">
          <mxGeometry x="140" y="290" width="60" height="30" as="geometry" />
        </mxCell>
        <mxCell id="IdkEX-wO0B-35H_ZXFYB-6" value="" style="endArrow=classic;html=1;rounded=0;exitX=1;exitY=0.5;exitDx=0;exitDy=0;" edge="1" parent="1" source="IdkEX-wO0B-35H_ZXFYB-5" target="IdkEX-wO0B-35H_ZXFYB-7">
          <mxGeometry width="50" height="50" relative="1" as="geometry">
            <mxPoint x="400" y="430" as="sourcePoint" />
            <mxPoint x="420" y="250" as="targetPoint" />
          </mxGeometry>
        </mxCell>
        <mxCell id="IdkEX-wO0B-35H_ZXFYB-9" value="" style="endArrow=none;html=1;rounded=0;entryX=0.5;entryY=1;entryDx=0;entryDy=0;" edge="1" parent="1" target="IdkEX-wO0B-35H_ZXFYB-7">
          <mxGeometry width="50" height="50" relative="1" as="geometry">
            <mxPoint x="460" y="270" as="sourcePoint" />
            <mxPoint x="450" y="380" as="targetPoint" />
          </mxGeometry>
        </mxCell>
        <mxCell id="IdkEX-wO0B-35H_ZXFYB-13" value="" style="endArrow=classic;html=1;rounded=0;exitX=1;exitY=0.5;exitDx=0;exitDy=0;entryX=0;entryY=0.5;entryDx=0;entryDy=0;" edge="1" parent="1" source="IdkEX-wO0B-35H_ZXFYB-12" target="IdkEX-wO0B-35H_ZXFYB-14">
          <mxGeometry width="50" height="50" relative="1" as="geometry">
            <mxPoint x="400" y="430" as="sourcePoint" />
            <mxPoint x="400" y="390" as="targetPoint" />
          </mxGeometry>
        </mxCell>
        <mxCell id="IdkEX-wO0B-35H_ZXFYB-21" value="" style="endArrow=classic;html=1;rounded=0;exitX=1;exitY=0.5;exitDx=0;exitDy=0;" edge="1" parent="1" source="IdkEX-wO0B-35H_ZXFYB-19">
          <mxGeometry width="50" height="50" relative="1" as="geometry">
            <mxPoint x="400" y="430" as="sourcePoint" />
            <mxPoint x="400" y="430" as="targetPoint" />
          </mxGeometry>
        </mxCell>
        <mxCell id="IdkEX-wO0B-35H_ZXFYB-25" value="" style="endArrow=none;html=1;rounded=0;exitX=1;exitY=0.5;exitDx=0;exitDy=0;" edge="1" parent="1" source="IdkEX-wO0B-35H_ZXFYB-22">
          <mxGeometry width="50" height="50" relative="1" as="geometry">
            <mxPoint x="400" y="430" as="sourcePoint" />
            <mxPoint x="560" y="430" as="targetPoint" />
          </mxGeometry>
        </mxCell>
        <mxCell id="IdkEX-wO0B-35H_ZXFYB-32" value="" style="endArrow=classic;html=1;rounded=0;exitX=0.5;exitY=1;exitDx=0;exitDy=0;" edge="1" parent="1" source="IdkEX-wO0B-35H_ZXFYB-22">
          <mxGeometry width="50" height="50" relative="1" as="geometry">
            <mxPoint x="400" y="430" as="sourcePoint" />
            <mxPoint x="440" y="500" as="targetPoint" />
          </mxGeometry>
        </mxCell>
        <mxCell id="IdkEX-wO0B-35H_ZXFYB-35" value="" style="endArrow=classic;html=1;rounded=0;exitX=0;exitY=0.5;exitDx=0;exitDy=0;entryX=1;entryY=0.5;entryDx=0;entryDy=0;" edge="1" parent="1" source="IdkEX-wO0B-35H_ZXFYB-34" target="IdkEX-wO0B-35H_ZXFYB-36">
          <mxGeometry width="50" height="50" relative="1" as="geometry">
            <mxPoint x="390" y="640" as="sourcePoint" />
            <mxPoint x="290" y="630" as="targetPoint" />
          </mxGeometry>
        </mxCell>
        <mxCell id="IdkEX-wO0B-35H_ZXFYB-41" value="" style="endArrow=classic;html=1;rounded=0;exitX=1;exitY=0.5;exitDx=0;exitDy=0;" edge="1" parent="1" source="IdkEX-wO0B-35H_ZXFYB-38">
          <mxGeometry width="50" height="50" relative="1" as="geometry">
            <mxPoint x="400" y="620" as="sourcePoint" />
            <mxPoint x="400" y="620" as="targetPoint" />
          </mxGeometry>
        </mxCell>
        <mxCell id="IdkEX-wO0B-35H_ZXFYB-43" value="" style="endArrow=none;html=1;rounded=0;exitX=0.5;exitY=1;exitDx=0;exitDy=0;" edge="1" parent="1" source="IdkEX-wO0B-35H_ZXFYB-42">
          <mxGeometry width="50" height="50" relative="1" as="geometry">
            <mxPoint x="400" y="620" as="sourcePoint" />
            <mxPoint x="460" y="690" as="targetPoint" />
          </mxGeometry>
        </mxCell>
        <mxCell id="IdkEX-wO0B-35H_ZXFYB-48" value="" style="endArrow=classic;html=1;rounded=0;exitX=1;exitY=0.5;exitDx=0;exitDy=0;entryX=0;entryY=0.5;entryDx=0;entryDy=0;entryPerimeter=0;" edge="1" parent="1" source="IdkEX-wO0B-35H_ZXFYB-46" target="IdkEX-wO0B-35H_ZXFYB-49">
          <mxGeometry width="50" height="50" relative="1" as="geometry">
            <mxPoint x="400" y="820" as="sourcePoint" />
            <mxPoint x="390" y="890" as="targetPoint" />
          </mxGeometry>
        </mxCell>
        <mxCell id="IdkEX-wO0B-35H_ZXFYB-51" value="" style="endArrow=none;html=1;rounded=0;entryX=0.5;entryY=1;entryDx=0;entryDy=0;" edge="1" parent="1" target="IdkEX-wO0B-35H_ZXFYB-49">
          <mxGeometry width="50" height="50" relative="1" as="geometry">
            <mxPoint x="470" y="790" as="sourcePoint" />
            <mxPoint x="450" y="770" as="targetPoint" />
          </mxGeometry>
        </mxCell>
        <mxCell id="IdkEX-wO0B-35H_ZXFYB-55" value="" style="endArrow=classic;html=1;rounded=0;exitX=0.5;exitY=1;exitDx=0;exitDy=0;" edge="1" parent="1" source="IdkEX-wO0B-35H_ZXFYB-54">
          <mxGeometry width="50" height="50" relative="1" as="geometry">
            <mxPoint x="400" y="920" as="sourcePoint" />
            <mxPoint x="230" y="900" as="targetPoint" />
          </mxGeometry>
        </mxCell>
        <mxCell id="IdkEX-wO0B-35H_ZXFYB-60" value="" style="endArrow=classic;html=1;rounded=0;exitX=0.5;exitY=1;exitDx=0;exitDy=0;" edge="1" parent="1" source="IdkEX-wO0B-35H_ZXFYB-56">
          <mxGeometry width="50" height="50" relative="1" as="geometry">
            <mxPoint x="400" y="1020" as="sourcePoint" />
            <mxPoint x="230" y="980" as="targetPoint" />
          </mxGeometry>
        </mxCell>
        <mxCell id="IdkEX-wO0B-35H_ZXFYB-62" value="" style="endArrow=classic;html=1;rounded=0;exitX=1;exitY=0.5;exitDx=0;exitDy=0;entryX=0;entryY=0.5;entryDx=0;entryDy=0;" edge="1" parent="1" source="IdkEX-wO0B-35H_ZXFYB-61" target="IdkEX-wO0B-35H_ZXFYB-63">
          <mxGeometry width="50" height="50" relative="1" as="geometry">
            <mxPoint x="400" y="1020" as="sourcePoint" />
            <mxPoint x="390" y="1230" as="targetPoint" />
          </mxGeometry>
        </mxCell>
        <mxCell id="IdkEX-wO0B-35H_ZXFYB-64" value="" style="endArrow=none;html=1;rounded=0;entryX=0.5;entryY=1;entryDx=0;entryDy=0;" edge="1" parent="1" target="IdkEX-wO0B-35H_ZXFYB-63">
          <mxGeometry width="50" height="50" relative="1" as="geometry">
            <mxPoint x="460" y="1060" as="sourcePoint" />
            <mxPoint x="450" y="1070" as="targetPoint" />
          </mxGeometry>
        </mxCell>
        <mxCell id="IdkEX-wO0B-35H_ZXFYB-68" value="" style="endArrow=classic;html=1;rounded=0;exitX=0.5;exitY=1;exitDx=0;exitDy=0;" edge="1" parent="1" source="IdkEX-wO0B-35H_ZXFYB-67">
          <mxGeometry width="50" height="50" relative="1" as="geometry">
            <mxPoint x="400" y="1300" as="sourcePoint" />
            <mxPoint x="230" y="1170" as="targetPoint" />
          </mxGeometry>
        </mxCell>
        <mxCell id="IdkEX-wO0B-35H_ZXFYB-71" value="" style="endArrow=none;html=1;rounded=0;entryX=0.5;entryY=1;entryDx=0;entryDy=0;" edge="1" parent="1" target="IdkEX-wO0B-35H_ZXFYB-14">
          <mxGeometry width="50" height="50" relative="1" as="geometry">
            <mxPoint x="460" y="380" as="sourcePoint" />
            <mxPoint x="450" y="270" as="targetPoint" />
          </mxGeometry>
        </mxCell>
        <mxCell id="IdkEX-wO0B-35H_ZXFYB-73" value="" style="endArrow=none;html=1;rounded=0;" edge="1" parent="1">
          <mxGeometry width="50" height="50" relative="1" as="geometry">
            <mxPoint x="560" y="430" as="sourcePoint" />
            <mxPoint x="560" y="350" as="targetPoint" />
          </mxGeometry>
        </mxCell>
        <mxCell id="IdkEX-wO0B-35H_ZXFYB-76" value="" style="endArrow=classic;html=1;rounded=0;" edge="1" parent="1">
          <mxGeometry width="50" height="50" relative="1" as="geometry">
            <mxPoint x="240" y="380" as="sourcePoint" />
            <mxPoint x="240" y="400" as="targetPoint" />
          </mxGeometry>
        </mxCell>
        <mxCell id="IdkEX-wO0B-35H_ZXFYB-78" value="" style="endArrow=classic;html=1;rounded=0;" edge="1" parent="1">
          <mxGeometry width="50" height="50" relative="1" as="geometry">
            <mxPoint x="220" y="690" as="sourcePoint" />
            <mxPoint x="220" y="710" as="targetPoint" />
          </mxGeometry>
        </mxCell>
        <mxCell id="IdkEX-wO0B-35H_ZXFYB-80" value="" style="endArrow=classic;html=1;rounded=0;" edge="1" parent="1">
          <mxGeometry width="50" height="50" relative="1" as="geometry">
            <mxPoint x="230" y="1060" as="sourcePoint" />
            <mxPoint x="230" y="1090" as="targetPoint" />
          </mxGeometry>
        </mxCell>
      </root>
    </mxGraphModel>
  </diagram>
</mxfile>
